<svg id="Ebene_1" data-name="Ebene 1" xmlns="http://www.w3.org/2000/svg" width="170.04" height="74.41" viewBox="0 0 170.04 74.41"><defs><style>.cls-1{fill:#005da9;}.cls-2{fill:#e30034;}</style></defs><title>IFX_LOGO</title><path class="cls-1" d="M126.72,50.09c6.36,0,8.34-6.72,8.34-12.9,0-8.28-3.48-12.6-8.34-12.6-6.12,0-8.28,6.72-8.22,12.72S120.24,50.09,126.72,50.09Zm-3.12-13c0-2.46,0-8.22,3.12-8.22,3.36,0,3.24,5.7,3.24,8.34s0,8.64-3.12,8.64C123.48,45.83,123.6,39.71,123.6,37.13Zm-15.36,13a9.15,9.15,0,0,0,6.9-3.24l-1.86-3.48a6.2,6.2,0,0,1-4.62,2.4,3.74,3.74,0,0,1-3.36-2.28,9.81,9.81,0,0,1-.72-4.26v-.48h10.8V37.67c0-5.34-.66-8.28-2.34-10.5a6.47,6.47,0,0,0-5.4-2.58,6.8,6.8,0,0,0-5.82,3.18c-1.56,2.28-2.22,5.34-2.22,9.54C99.54,45.35,102.72,50.09,108.24,50.09Zm-.54-21.54a2.5,2.5,0,0,1,2.4,1.74,14.28,14.28,0,0,1,.54,4.5h-6.06C104.64,30.53,105.54,28.55,107.7,28.55ZM139,49.49h4.68v-18a5.17,5.17,0,0,1,3.42-2.16,1.84,1.84,0,0,1,1.56.6c.36.54.54,1.32.54,3.18V49.49h4.68V31a7,7,0,0,0-1.14-4.44,4.69,4.69,0,0,0-3.84-1.74,7.79,7.79,0,0,0-5.58,2.7,12.05,12.05,0,0,0-.6-2.88l-4.38,1.14a27.79,27.79,0,0,1,.6,5.88V49.49Zm-54.36-22a12.05,12.05,0,0,0-.6-2.88l-4.38,1.14a27.79,27.79,0,0,1,.6,5.88V49.43H85v-18a5.17,5.17,0,0,1,3.42-2.16,1.84,1.84,0,0,1,1.56.6c.36.54.54,1.32.54,3.18V49.43h4.68V31A7,7,0,0,0,94,26.51a4.69,4.69,0,0,0-3.84-1.74A7.77,7.77,0,0,0,84.66,27.47ZM27.42,17a5,5,0,1,0-5-5A5,5,0,0,0,27.42,17Zm23,32.52V31a7,7,0,0,0-1.14-4.44,4.69,4.69,0,0,0-3.84-1.74,7.79,7.79,0,0,0-5.58,2.7,12.05,12.05,0,0,0-.6-2.88l-4.32,1.2a27.79,27.79,0,0,1,.6,5.88V49.49H40.2v-18a5.17,5.17,0,0,1,3.42-2.16,1.84,1.84,0,0,1,1.56.6c.36.54.54,1.32.54,3.18V49.49ZM71.94,15.65A3.12,3.12,0,1,0,75,18.77,3.1,3.1,0,0,0,71.94,15.65ZM25.2,49.49h4.68V20.27l-4.68.6Zm38.22-31a3.77,3.77,0,0,1,2.22.72L67,15.59a7.15,7.15,0,0,0-4.38-1.32,5.65,5.65,0,0,0-3.6,1.2c-1.14,1-2.34,2.88-2.34,6.48,0,1.56.06,3.18.06,3.18H55.08v4.14H56.7V49.43h4.8V29.33H65l.9-4.14H61.56V21.47C61.56,19.67,62.28,18.53,63.42,18.53Zm6.12,31h4.74V24.77l-4.74.6Z"/><path class="cls-2" d="M144.3,62.69c-15.84,4.68-35.1,6.72-53.94,6.72-47.82,0-78.66-14-80.82-32.58-.78-7,4.68-13.74,13.8-19.5a6.76,6.76,0,0,1-2.7-5.28C7.44,19,0,28.13,0,37.37c0,20.46,36.54,37.74,90.84,37,18.9-.24,34.68-2.94,49-7.62,17-5.52,27.66-13.44,30.24-16.92C167,52.61,159.72,58.13,144.3,62.69ZM43.56,8.21c3.18-1.08,7.68-2.46,7.68-2.46A148.38,148.38,0,0,1,90.9.35,171.51,171.51,0,0,0,50.28,2.51s-4,.66-8.22,1.74c0,0-2,.54-3.3.9l-3,.84c-1.2.36-2.4.78-3.6,1.2a6.65,6.65,0,0,1,2,4.56C36.24,10.79,40.26,9.35,43.56,8.21Z"/></svg>
